<svg xmlns="http://www.w3.org/2000/svg" viewBox="171.389 91.829 64 32">
  <path fill="#0075ff" d="M 171.749 115.869 L 173.227 115.869 C 173.42660401270362 115.869 173.5881089112704 116.03139906762947 173.58700000000002 116.231 L 173.58700000000002 121.73299999999999 C 173.5881089112704 121.93260093237052 173.42660401270362 122.09499999999998 173.227 122.09499999999998 L 171.749 122.09499999999998 C 171.54939598729638 122.09499999999998 171.3878910887296 121.93260093237052 171.38899999999998 121.73299999999999 L 171.38899999999998 116.231 C 171.38899999999998 116.03099999999999 171.54999999999998 115.869 171.749 115.869"></path>
  <path fill="#0075ff" d="M 233.71200000000005 102.95899999999999 L 234.86900000000006 102.95899999999999 C 235.1569694318967 102.95899999999999 235.39010757478243 103.19303269806282 235.38900000000007 103.481 L 235.38900000000007 105.401 C 235.39010757478243 105.68896730193717 235.1569694318967 105.923 234.86900000000006 105.923 L 233.71200000000005 105.923 C 233.4240305681034 105.923 233.19089242521767 105.68896730193717 233.19200000000004 105.401 L 233.19200000000004 103.481 C 233.19089242521767 103.19303269806282 233.4240305681034 102.95899999999999 233.71200000000005 102.95899999999999"></path>
  <path fill="#0075ff" d="M 230.50200000000004 99.24999999999999 L 231.65900000000005 99.24999999999999 C 231.9469694318967 99.24999999999999 232.18010757478243 99.48403269806282 232.17900000000006 99.77199999999999 L 232.17900000000006 106.52999999999999 C 232.18010757478243 106.81796730193716 231.9469694318967 107.05199999999999 231.65900000000005 107.05199999999999 L 230.50200000000004 107.05199999999999 C 230.2140305681034 107.05199999999999 229.98089242521766 106.81796730193716 229.98200000000003 106.52999999999999 L 229.98200000000003 99.77199999999999 C 229.98089242521766 99.48403269806282 230.2140305681034 99.24999999999999 230.50200000000004 99.24999999999999"></path>
  <path fill="#0075ff" d="M 227.26600000000005 96.34799999999998 L 228.42300000000006 96.34799999999998 C 228.7109694318967 96.34799999999998 228.94410757478244 96.58203269806282 228.94300000000007 96.86999999999999 L 228.94300000000007 106.85399999999998 C 228.94410757478244 107.14196730193716 228.7109694318967 107.37599999999999 228.42300000000006 107.37599999999999 L 227.26600000000005 107.37599999999999 C 226.9780305681034 107.37599999999999 226.74489242521767 107.14196730193716 226.74600000000004 106.85399999999998 L 226.74600000000004 96.86899999999999 C 226.74489242521767 96.58103269806281 226.9780305681034 96.34699999999998 227.26600000000005 96.34699999999998 L 227.26600000000005 96.34799999999998 Z"></path>
  <path fill="#0075ff" d="M 224.01000000000005 102.95899999999999 L 225.16700000000006 102.95899999999999 C 225.4549694318967 102.95899999999999 225.68810757478244 103.19303269806282 225.68700000000007 103.481 L 225.68700000000007 106.368 C 225.68810757478244 106.65596730193717 225.4549694318967 106.89 225.16700000000006 106.89 L 224.01000000000005 106.89 C 223.7220305681034 106.89 223.48889242521767 106.65596730193717 223.49000000000004 106.368 L 223.49000000000004 103.481 C 223.48889242521767 103.19303269806282 223.7220305681034 102.95899999999999 224.01000000000005 102.95899999999999"></path>
  <path fill="#0075ff" d="M 224.01000000000005 99.24999999999999 L 225.16700000000006 99.24999999999999 C 225.4549694318967 99.24999999999999 225.68810757478244 99.48403269806282 225.68700000000007 99.77199999999999 L 225.68700000000007 101.52999999999999 C 225.68810757478244 101.81796730193716 225.4549694318967 102.05199999999999 225.16700000000006 102.05199999999999 L 224.01000000000005 102.05199999999999 C 223.7220305681034 102.05199999999999 223.48889242521767 101.81796730193716 223.49000000000004 101.52999999999999 L 223.49000000000004 99.77199999999999 C 223.48889242521767 99.48403269806282 223.7220305681034 99.24999999999999 224.01000000000005 99.24999999999999"></path>
  <path fill="#0075ff" d="M 224.01000000000005 95.37899999999999 L 225.16700000000006 95.37899999999999 C 225.45500000000007 95.37899999999999 225.68700000000007 95.61399999999999 225.68700000000007 95.901 L 225.68700000000007 97.821 C 225.68810757478244 98.10896730193717 225.4549694318967 98.343 225.16700000000006 98.343 L 224.01000000000005 98.343 C 223.7220305681034 98.343 223.48889242521767 98.10896730193717 223.49000000000004 97.821 L 223.49000000000004 95.901 C 223.48889242521767 95.61303269806282 223.7220305681034 95.37899999999999 224.01000000000005 95.37899999999999"></path>
  <path fill="#0075ff" d="M 220.71300000000005 99.734 L 221.87000000000006 99.734 C 222.1579694318967 99.734 222.39110757478244 99.96803269806283 222.39000000000007 100.256 L 222.39000000000007 106.046 C 222.39110757478244 106.33396730193718 222.1579694318967 106.56800000000001 221.87000000000006 106.56800000000001 L 220.71300000000005 106.56800000000001 C 220.4250305681034 106.56800000000001 220.19189242521767 106.33396730193718 220.19300000000004 106.046 L 220.19300000000004 100.256 C 220.19189242521767 99.96803269806283 220.4250305681034 99.734 220.71300000000005 99.734"></path>
  <path fill="#0075ff" d="M 220.71300000000005 94.574 L 221.87000000000006 94.574 C 222.15800000000007 94.574 222.39000000000007 94.809 222.39000000000007 95.096 L 222.39000000000007 98.14500000000001 C 222.39110757478244 98.43296730193718 222.1579694318967 98.66700000000002 221.87000000000006 98.66700000000002 L 220.71300000000005 98.66700000000002 C 220.4250305681034 98.66700000000002 220.19189242521767 98.43296730193718 220.19300000000004 98.14500000000001 L 220.19300000000004 95.09500000000001 C 220.19189242521767 94.80703269806284 220.4250305681034 94.57300000000001 220.71300000000005 94.57300000000001 L 220.71300000000005 94.574 Z"></path>
  <path fill="#0075ff" d="M 217.50200000000004 120.862 L 218.65900000000005 120.862 C 218.94700000000006 120.862 219.17900000000006 121.097 219.17900000000006 121.384 L 219.17900000000006 123.304 C 219.18010757478243 123.59196730193717 218.9469694318967 123.82600000000001 218.65900000000005 123.82600000000001 L 217.50200000000004 123.82600000000001 C 217.2140305681034 123.82600000000001 216.98089242521766 123.59196730193717 216.98200000000003 123.304 L 216.98200000000003 121.384 C 216.98089242521766 121.09603269806283 217.2140305681034 120.862 217.50200000000004 120.862"></path>
  <path fill="#0075ff" d="M 217.50200000000004 93.60600000000005 L 218.65900000000005 93.60600000000005 C 218.94700000000006 93.60600000000005 219.17900000000006 93.84100000000005 219.17900000000006 94.12800000000006 L 219.17900000000006 106.37000000000006 C 219.18010757478243 106.65796730193723 218.9469694318967 106.89200000000007 218.65900000000005 106.89200000000007 L 217.50200000000004 106.89200000000007 C 217.2140305681034 106.89200000000007 216.98089242521766 106.65796730193723 216.98200000000003 106.37000000000006 L 216.98200000000003 94.128 C 216.98089242521766 93.84003269806283 217.2140305681034 93.606 217.50200000000004 93.606"></path>
  <path fill="#0075ff" d="M 214.20200000000003 92.79900000000005 L 215.35900000000004 92.79900000000005 C 215.64696943189668 92.79900000000005 215.88010757478241 93.03303269806288 215.87900000000005 93.32100000000005 L 215.87900000000005 102.98200000000006 C 215.88010757478241 103.26996730193723 215.64696943189668 103.50400000000006 215.35900000000004 103.50400000000006 L 214.20200000000003 103.50400000000006 C 213.91403056810339 103.50400000000006 213.68089242521765 103.26996730193723 213.68200000000002 102.98200000000006 L 213.68200000000002 93.32100000000005 C 213.68089242521765 93.03303269806288 213.91403056810339 92.79900000000005 214.20200000000003 92.79900000000005"></path>
  <path fill="#0075ff" d="M 214.20200000000003 104.57200000000005 L 215.35900000000004 104.57200000000005 C 215.64700000000005 104.57200000000005 215.87900000000005 104.80700000000004 215.87900000000005 105.09400000000005 L 215.87900000000005 108.14400000000005 C 215.88010757478241 108.43196730193722 215.64696943189668 108.66600000000005 215.35900000000004 108.66600000000005 L 214.20200000000003 108.66600000000005 C 213.91403056810339 108.66600000000005 213.68089242521765 108.43196730193722 213.68200000000002 108.14400000000005 L 213.68200000000002 105.09400000000005 C 213.68089242521765 104.80603269806288 213.91403056810339 104.57200000000005 214.20200000000003 104.57200000000005"></path>
  <path fill="#0075ff" d="M 214.20200000000003 118.28100000000005 L 215.35900000000004 118.28100000000005 C 215.64696943189668 118.28100000000005 215.88010757478241 118.51503269806288 215.87900000000005 118.80300000000005 L 215.87900000000005 123.30300000000005 C 215.88010757478241 123.59096730193723 215.64696943189668 123.82500000000006 215.35900000000004 123.82500000000006 L 214.20200000000003 123.82500000000006 C 213.91403056810339 123.82500000000006 213.68089242521765 123.59096730193723 213.68200000000002 123.30300000000005 L 213.68200000000002 118.80300000000005 C 213.68089242521765 118.51503269806288 213.91403056810339 118.28100000000005 214.20200000000003 118.28100000000005"></path>
  <path fill="#0075ff" d="M 210.94600000000003 119.24800000000005 L 212.10300000000004 119.24800000000005 C 212.39100000000005 119.24800000000005 212.62300000000005 119.48300000000005 212.62300000000005 119.77000000000005 L 212.62300000000005 122.81800000000005 C 212.6241075747824 123.10596730193723 212.39096943189668 123.34000000000006 212.10300000000004 123.34000000000006 L 210.94600000000003 123.34000000000006 C 210.65803056810338 123.34000000000006 210.42489242521765 123.10596730193723 210.42600000000002 122.81800000000005 L 210.42600000000002 119.77000000000005 C 210.42489242521765 119.48203269806288 210.65803056810338 119.24800000000005 210.94600000000003 119.24800000000005"></path>
  <path fill="#0075ff" d="M 210.94600000000003 100.70000000000005 L 212.10300000000004 100.70000000000005 C 212.39100000000005 100.70000000000005 212.62300000000005 100.93500000000004 212.62300000000005 101.22200000000005 L 212.62300000000005 117.65800000000004 C 212.6241075747824 117.94596730193722 212.39096943189668 118.18000000000005 212.10300000000004 118.18000000000005 L 210.94600000000003 118.18000000000005 C 210.65803056810338 118.18000000000005 210.42489242521765 117.94596730193722 210.42600000000002 117.65800000000004 L 210.42600000000002 101.22300000000004 C 210.42489242521765 100.93503269806287 210.65803056810338 100.70100000000004 210.94600000000003 100.70100000000004 L 210.94600000000003 100.70000000000005 Z"></path>
  <path fill="#0075ff" d="M 210.94600000000003 92.95900000000005 L 212.10300000000004 92.95900000000005 C 212.39096943189668 92.95900000000005 212.6241075747824 93.19303269806288 212.62300000000005 93.48100000000005 L 212.62300000000005 99.11000000000006 C 212.6241075747824 99.39796730193723 212.39096943189668 99.63200000000006 212.10300000000004 99.63200000000006 L 210.94600000000003 99.63200000000006 C 210.65803056810338 99.63200000000006 210.42489242521765 99.39796730193723 210.42600000000002 99.11000000000006 L 210.42600000000002 93.48200000000006 C 210.42489242521765 93.19403269806288 210.65803056810338 92.96000000000005 210.94600000000003 92.96000000000005 L 210.94600000000003 92.95900000000005 Z"></path>
  <path fill="#0075ff" d="M 207.711 108.76500000000004 L 208.86800000000002 108.76500000000004 C 209.15596943189666 108.76500000000004 209.3891075747824 108.99903269806288 209.38800000000003 109.28700000000005 L 209.38800000000003 119.75400000000005 C 209.3891075747824 120.04196730193722 209.15596943189666 120.27600000000005 208.86800000000002 120.27600000000005 L 207.711 120.27600000000005 C 207.42303056810337 120.27600000000005 207.18989242521764 120.04196730193722 207.191 119.75400000000005 L 207.191 109.28700000000005 C 207.18989242521764 108.99903269806288 207.42303056810337 108.76500000000004 207.711 108.76500000000004"></path>
  <path fill="#0075ff" d="M 207.711 93.44300000000004 L 208.86800000000002 93.44300000000004 C 209.15596943189666 93.44300000000004 209.3891075747824 93.67703269806287 209.38800000000003 93.96500000000005 L 209.38800000000003 107.17400000000005 C 209.3891075747824 107.46196730193722 209.15596943189666 107.69600000000005 208.86800000000002 107.69600000000005 L 207.711 107.69600000000005 C 207.42303056810337 107.69600000000005 207.18989242521764 107.46196730193722 207.191 107.17400000000005 L 207.191 93.966 C 207.18989242521764 93.67803269806282 207.42303056810337 93.44399999999999 207.711 93.44399999999999 L 207.711 93.44300000000004 Z"></path>
  <path fill="#0075ff" d="M 204.47500000000002 112.79600000000005 L 205.63200000000003 112.79600000000005 C 205.92000000000004 112.79600000000005 206.15200000000004 113.03100000000005 206.15200000000004 113.31800000000005 L 206.15200000000004 116.52800000000005 C 206.1531075747824 116.81596730193722 205.91996943189667 117.05000000000005 205.63200000000003 117.05000000000005 L 204.47500000000002 117.05000000000005 C 204.18703056810338 117.05000000000005 203.95389242521765 116.81596730193722 203.955 116.52800000000005 L 203.955 113.31800000000005 C 203.95389242521765 113.03003269806288 204.18703056810338 112.79600000000005 204.47500000000002 112.79600000000005"></path>
  <path fill="#0075ff" d="M 204.47500000000002 103.60400000000004 L 205.63200000000003 103.60400000000004 C 205.91996943189667 103.60400000000004 206.1531075747824 103.83803269806288 206.15200000000004 104.12600000000005 L 206.15200000000004 111.20800000000004 C 206.1531075747824 111.49596730193721 205.91996943189667 111.73000000000005 205.63200000000003 111.73000000000005 L 204.47500000000002 111.73000000000005 C 204.18703056810338 111.73000000000005 203.95389242521765 111.49596730193721 203.955 111.20800000000004 L 203.955 104.12600000000005 C 203.95389242521765 103.83803269806288 204.18703056810338 103.60400000000004 204.47500000000002 103.60400000000004"></path>
  <path fill="#0075ff" d="M 204.47500000000002 92.95900000000005 L 205.63200000000003 92.95900000000005 C 205.91996943189667 92.95900000000005 206.1531075747824 93.19303269806288 206.15200000000004 93.48100000000005 L 206.15200000000004 102.01300000000005 C 206.1531075747824 102.30096730193722 205.91996943189667 102.53500000000005 205.63200000000003 102.53500000000005 L 204.47500000000002 102.53500000000005 C 204.18703056810338 102.53500000000005 203.95389242521765 102.30096730193722 203.955 102.01300000000005 L 203.955 93.48200000000004 C 203.95389242521765 93.19403269806287 204.18703056810338 92.96000000000004 204.47500000000002 92.96000000000004 L 204.47500000000002 92.95900000000005 Z"></path>
  <path fill="#0075ff" d="M 201.21900000000002 98.60300000000005 L 202.37600000000003 98.60300000000005 C 202.66396943189667 98.60300000000005 202.8971075747824 98.83703269806288 202.89600000000004 99.12500000000006 L 202.89600000000004 113.94700000000006 C 202.8971075747824 114.23496730193723 202.66396943189667 114.46900000000007 202.37600000000003 114.46900000000007 L 201.21900000000002 114.46900000000007 C 200.93103056810338 114.46900000000007 200.69789242521765 114.23496730193723 200.699 113.94700000000006 L 200.699 99.126 C 200.69789242521765 98.83803269806283 200.93103056810338 98.604 201.21900000000002 98.604 L 201.21900000000002 98.60300000000005 Z"></path>
  <path fill="#0075ff" d="M 201.21900000000002 92.63600000000005 L 202.37600000000003 92.63600000000005 C 202.66400000000004 92.63600000000005 202.89600000000004 92.87100000000005 202.89600000000004 93.15800000000006 L 202.89600000000004 97.01200000000006 C 202.8971075747824 97.29996730193723 202.66396943189667 97.53400000000006 202.37600000000003 97.53400000000006 L 201.21900000000002 97.53400000000006 C 200.93103056810338 97.53400000000006 200.69789242521765 97.29996730193723 200.699 97.01200000000006 L 200.699 93.15900000000006 C 200.69789242521765 92.87103269806289 200.93103056810338 92.63700000000006 201.21900000000002 92.63700000000006 L 201.21900000000002 92.63600000000005 Z"></path>
  <path fill="#0075ff" d="M 197.96400000000003 107.79600000000005 L 199.12100000000004 107.79600000000005 C 199.40900000000005 107.79600000000005 199.64100000000005 108.03100000000005 199.64100000000005 108.31800000000005 L 199.64100000000005 113.94700000000006 C 199.64210757478241 114.23496730193723 199.40896943189668 114.46900000000007 199.12100000000004 114.46900000000007 L 197.96400000000003 114.46900000000007 C 197.67603056810339 114.46900000000007 197.44289242521765 114.23496730193723 197.44400000000002 113.94700000000006 L 197.44400000000002 108.31800000000005 C 197.44289242521765 108.03003269806288 197.67603056810339 107.79600000000005 197.96400000000003 107.79600000000005"></path>
  <path fill="#0075ff" d="M 197.96400000000003 91.99000000000005 L 199.12100000000004 91.99000000000005 C 199.40900000000005 91.99000000000005 199.64100000000005 92.22500000000005 199.64100000000005 92.51200000000006 L 199.64100000000005 106.20500000000006 C 199.64210757478241 106.49296730193723 199.40896943189668 106.72700000000006 199.12100000000004 106.72700000000006 L 197.96400000000003 106.72700000000006 C 197.67603056810339 106.72700000000006 197.44289242521765 106.49296730193723 197.44400000000002 106.20500000000006 L 197.44400000000002 92.513 C 197.44289242521765 92.22503269806283 197.67603056810339 91.991 197.96400000000003 91.991 L 197.96400000000003 91.99000000000005 Z"></path>
  <path fill="#0075ff" d="M 197.96400000000003 120.53700000000005 L 199.12100000000004 120.53700000000005 C 199.40896943189668 120.53700000000005 199.64210757478241 120.77103269806288 199.64100000000005 121.05900000000005 L 199.64100000000005 123.30100000000006 C 199.64210757478241 123.58896730193723 199.40896943189668 123.82300000000006 199.12100000000004 123.82300000000006 L 197.96400000000003 123.82300000000006 C 197.67603056810339 123.82300000000006 197.44289242521765 123.58896730193723 197.44400000000002 123.30100000000006 L 197.44400000000002 121.05900000000005 C 197.44289242521765 120.77103269806288 197.67603056810339 120.53700000000005 197.96400000000003 120.53700000000005"></path>
  <path fill="#0075ff" d="M 194.70700000000002 91.82900000000005 L 195.86400000000003 91.82900000000005 C 196.15196943189667 91.82900000000005 196.3851075747824 92.06303269806288 196.38400000000004 92.35100000000006 L 196.38400000000004 100.39900000000006 C 196.3851075747824 100.68696730193723 196.15196943189667 100.92100000000006 195.86400000000003 100.92100000000006 L 194.70700000000002 100.92100000000006 C 194.41903056810338 100.92100000000006 194.18589242521765 100.68696730193723 194.187 100.39900000000006 L 194.187 92.35200000000006 C 194.18589242521765 92.06403269806289 194.41903056810338 91.83000000000006 194.70700000000002 91.83000000000006 L 194.70700000000002 91.82900000000005 Z"></path>
  <path fill="#0075ff" d="M 194.70700000000002 101.99100000000006 L 195.86400000000003 101.99100000000006 C 196.15200000000004 101.99100000000006 196.38400000000004 102.22600000000006 196.38400000000004 102.51300000000006 L 196.38400000000004 113.94700000000006 C 196.3851075747824 114.23496730193723 196.15196943189667 114.46900000000007 195.86400000000003 114.46900000000007 L 194.70700000000002 114.46900000000007 C 194.41903056810338 114.46900000000007 194.18589242521765 114.23496730193723 194.187 113.94700000000006 L 194.187 102.51300000000006 C 194.18589242521765 102.22503269806289 194.41903056810338 101.99100000000006 194.70700000000002 101.99100000000006"></path>
  <path fill="#0075ff" d="M 194.70700000000002 118.11800000000005 L 195.86400000000003 118.11800000000005 C 196.15200000000004 118.11800000000005 196.38400000000004 118.35300000000005 196.38400000000004 118.64000000000006 L 196.38400000000004 123.30300000000005 C 196.3851075747824 123.59096730193723 196.15196943189667 123.82500000000006 195.86400000000003 123.82500000000006 L 194.70700000000002 123.82500000000006 C 194.41903056810338 123.82500000000006 194.18589242521765 123.59096730193723 194.187 123.30300000000005 L 194.187 118.64000000000006 C 194.18589242521765 118.35203269806289 194.41903056810338 118.11800000000005 194.70700000000002 118.11800000000005"></path>
  <path fill="#0075ff" d="M 191.45000000000002 118.92500000000005 L 192.60700000000003 118.92500000000005 C 192.89496943189667 118.92500000000005 193.1281075747824 119.15903269806289 193.12700000000004 119.44700000000006 L 193.12700000000004 122.01200000000006 C 193.1281075747824 122.29996730193723 192.89496943189667 122.53400000000006 192.60700000000003 122.53400000000006 L 191.45000000000002 122.53400000000006 C 191.16203056810338 122.53400000000006 190.92889242521764 122.29996730193723 190.93 122.01200000000006 L 190.93 119.44700000000006 C 190.92889242521764 119.15903269806289 191.16203056810338 118.92500000000005 191.45000000000002 118.92500000000005"></path>
  <path fill="#0075ff" d="M 191.45000000000002 112.79600000000005 L 192.60700000000003 112.79600000000005 C 192.89500000000004 112.79600000000005 193.12700000000004 113.03100000000005 193.12700000000004 113.31800000000005 L 193.12700000000004 117.33400000000006 C 193.1281075747824 117.62196730193723 192.89496943189667 117.85600000000007 192.60700000000003 117.85600000000007 L 191.45000000000002 117.85600000000007 C 191.16203056810338 117.85600000000007 190.92889242521764 117.62196730193723 190.93 117.33400000000006 L 190.93 113.31800000000005 C 190.92889242521764 113.03003269806288 191.16203056810338 112.79600000000005 191.45000000000002 112.79600000000005"></path>
  <path fill="#0075ff" d="M 191.45000000000002 95.86100000000005 L 192.60700000000003 95.86100000000005 C 192.89496943189667 95.86100000000005 193.1281075747824 96.09503269806288 193.12700000000004 96.38300000000005 L 193.12700000000004 111.20500000000006 C 193.1281075747824 111.49296730193723 192.89496943189667 111.72700000000006 192.60700000000003 111.72700000000006 L 191.45000000000002 111.72700000000006 C 191.16203056810338 111.72700000000006 190.92889242521764 111.49296730193723 190.93 111.20500000000006 L 190.93 96.384 C 190.92889242521764 96.09603269806283 191.16203056810338 95.862 191.45000000000002 95.862 L 191.45000000000002 95.86100000000005 Z"></path>
  <path fill="#0075ff" d="M 191.45000000000002 91.99200000000005 L 192.60700000000003 91.99200000000005 C 192.89500000000004 91.99200000000005 193.12700000000004 92.22700000000005 193.12700000000004 92.51400000000005 L 193.12700000000004 94.43400000000005 C 193.1281075747824 94.72196730193723 192.89496943189667 94.95600000000006 192.60700000000003 94.95600000000006 L 191.45000000000002 94.95600000000006 C 191.16203056810338 94.95600000000006 190.92889242521764 94.72196730193723 190.93 94.43400000000005 L 190.93 92.51600000000005 C 190.92889242521764 92.22803269806288 191.16203056810338 91.99400000000004 191.45000000000002 91.99400000000004 L 191.45000000000002 91.99200000000005 Z"></path>
  <path fill="#0075ff" d="M 188.192 109.08900000000004 L 189.348 109.08900000000004 C 189.63596943189665 109.08900000000004 189.8691075747824 109.32303269806287 189.86800000000002 109.61100000000005 L 189.86800000000002 119.59500000000004 C 189.8691075747824 119.88296730193721 189.63596943189665 120.11700000000005 189.348 120.11700000000005 L 188.192 120.11700000000005 C 187.90403056810337 120.11700000000005 187.67089242521763 119.88296730193721 187.672 119.59500000000004 L 187.672 109.61100000000005 C 187.67089242521763 109.32303269806287 187.90403056810337 109.08900000000004 188.192 109.08900000000004"></path>
  <path fill="#0075ff" d="M 188.192 105.05500000000004 L 189.34900000000002 105.05500000000004 C 189.63696943189666 105.05500000000004 189.8701075747824 105.28903269806287 189.86900000000003 105.57700000000004 L 189.86900000000003 107.81900000000005 C 189.8701075747824 108.10696730193722 189.63696943189666 108.34100000000005 189.34900000000002 108.34100000000005 L 188.192 108.34100000000005 C 187.90403056810337 108.34100000000005 187.67089242521763 108.10696730193722 187.672 107.81900000000005 L 187.672 105.57700000000004 C 187.67089242521763 105.28903269806287 187.90403056810337 105.05500000000004 188.192 105.05500000000004"></path>
  <path fill="#0075ff" d="M 188.192 93.28200000000004 L 189.34900000000002 93.28200000000004 C 189.63696943189666 93.28200000000004 189.8701075747824 93.51603269806287 189.86900000000003 93.80400000000004 L 189.86900000000003 103.46500000000005 C 189.8701075747824 103.75296730193722 189.63696943189666 103.98700000000005 189.34900000000002 103.98700000000005 L 188.192 103.98700000000005 C 187.90403056810337 103.98700000000005 187.67089242521763 103.75296730193722 187.672 103.46500000000005 L 187.672 93.80400000000004 C 187.67089242521763 93.51603269806287 187.90403056810337 93.28200000000004 188.192 93.28200000000004"></path>
  <path fill="#0075ff" d="M 184.77700000000002 110.54000000000003 L 186.25500000000002 110.54000000000003 C 186.45460401270364 110.54000000000003 186.61610891127043 110.7023990676295 186.61500000000004 110.90200000000003 L 186.61500000000004 117.55400000000003 C 186.61610891127043 117.75360093237056 186.45460401270364 117.91600000000003 186.25500000000002 117.91600000000003 L 184.77700000000002 117.91600000000003 C 184.5773959872964 117.91600000000003 184.4158910887296 117.75360093237056 184.417 117.55400000000003 L 184.417 110.90200000000003 C 184.417 110.70200000000003 184.578 110.54000000000003 184.77700000000002 110.54000000000003"></path>
  <path fill="#0075ff" d="M 184.77700000000002 101.34700000000004 L 186.25500000000002 101.34700000000004 C 186.45460401270364 101.34700000000004 186.61610891127043 101.5093990676295 186.61500000000004 101.70900000000003 L 186.61500000000004 109.11200000000004 C 186.61610891127043 109.31160093237057 186.45460401270364 109.47400000000003 186.25500000000002 109.47400000000003 L 184.77700000000002 109.47400000000003 C 184.5773959872964 109.47400000000003 184.4158910887296 109.31160093237057 184.417 109.11200000000004 L 184.417 101.70900000000003 C 184.417 101.50900000000003 184.578 101.34700000000004 184.77700000000002 101.34700000000004"></path>
  <path fill="#0075ff" d="M 184.77700000000002 94.57300000000004 L 186.25500000000002 94.57300000000004 C 186.45460401270364 94.57300000000004 186.61610891127043 94.7353990676295 186.61500000000004 94.93500000000003 L 186.61500000000004 100.08100000000003 C 186.61610891127043 100.28060093237056 186.45460401270364 100.44300000000003 186.25500000000002 100.44300000000003 L 184.77700000000002 100.44300000000003 C 184.5773959872964 100.44300000000003 184.4158910887296 100.28060093237056 184.417 100.08100000000003 L 184.417 94.93400000000003 C 184.417 94.73400000000002 184.578 94.57200000000003 184.77700000000002 94.57200000000003 L 184.77700000000002 94.57300000000004 Z"></path>
  <path fill="#0075ff" d="M 181.52 105.54500000000003 L 182.99900000000002 105.54500000000003 C 183.1978228447013 105.54555149760064 183.358553052723 105.70717715961845 183.35800000000003 105.90600000000003 L 183.35800000000003 116.36600000000004 C 183.358553052723 116.56482284038162 183.1978228447013 116.72644850239944 182.99900000000002 116.72700000000005 L 181.52 116.72700000000005 C 181.32117715529873 116.72644850239944 181.16044694727702 116.56482284038162 181.161 116.36600000000004 L 181.161 105.90600000000003 C 181.161 105.70600000000003 181.322 105.54500000000003 181.52 105.54500000000003"></path>
  <path fill="#0075ff" d="M 181.52 96.16500000000003 L 182.99800000000002 96.16500000000003 C 183.19760401270364 96.16500000000003 183.35910891127043 96.3273990676295 183.35800000000003 96.52700000000003 L 183.35800000000003 104.24300000000002 C 183.35910891127043 104.44260093237055 183.19760401270364 104.60500000000002 182.99800000000002 104.60500000000002 L 181.52 104.60500000000002 C 181.3203959872964 104.60500000000002 181.1588910887296 104.44260093237055 181.16 104.24300000000002 L 181.16 96.52400000000003 C 181.16 96.32400000000003 181.321 96.16200000000003 181.52 96.16200000000003 L 181.52 96.16500000000003 Z"></path>
  <path fill="#0075ff" d="M 178.423 120.86200000000004 L 179.58 120.86200000000004 C 179.86800000000002 120.86200000000004 180.10000000000002 121.09700000000004 180.10000000000002 121.38400000000004 L 180.10000000000002 123.30400000000004 C 180.1011075747824 123.59196730193722 179.86796943189665 123.82600000000005 179.58 123.82600000000005 L 178.423 123.82600000000005 C 178.13503056810336 123.82600000000005 177.90189242521762 123.59196730193722 177.903 123.30400000000004 L 177.903 121.38400000000004 C 177.90189242521762 121.09603269806287 178.13503056810336 120.86200000000004 178.423 120.86200000000004"></path>
  <path fill="#0075ff" d="M 178.263 113.99800000000003 L 179.741 113.99800000000003 C 179.94060401270363 113.99800000000003 180.10210891127042 114.1603990676295 180.10100000000003 114.36000000000003 L 180.10100000000003 117.74300000000002 C 180.10210891127042 117.94260093237055 179.94060401270363 118.10500000000002 179.741 118.10500000000002 L 178.263 118.10500000000002 C 178.0633959872964 118.10500000000002 177.9018910887296 117.94260093237055 177.903 117.74300000000002 L 177.903 114.36000000000003 C 177.903 114.16000000000003 178.064 113.99800000000003 178.263 113.99800000000003"></path>
  <path fill="#0075ff" d="M 178.263 101.34000000000003 L 179.741 101.34000000000003 C 179.94060401270363 101.34000000000003 180.10210891127042 101.5023990676295 180.10100000000003 101.70200000000003 L 180.10100000000003 112.61200000000002 C 180.10210891127042 112.81160093237055 179.94060401270363 112.97400000000002 179.741 112.97400000000002 L 178.263 112.97400000000002 C 178.0633959872964 112.97400000000002 177.9018910887296 112.81160093237055 177.903 112.61200000000002 L 177.903 101.70200000000003 C 177.903 101.50200000000002 178.064 101.34000000000003 178.263 101.34000000000003"></path>
  <path fill="#0075ff" d="M 175.005 117.27900000000001 L 176.483 117.27900000000001 C 176.68260401270362 117.27900000000001 176.8441089112704 117.44139906762948 176.84300000000002 117.641 L 176.84300000000002 123.46700000000001 C 176.8441089112704 123.66660093237054 176.68260401270362 123.82900000000001 176.483 123.82900000000001 L 175.005 123.82900000000001 C 174.80539598729638 123.82900000000001 174.6438910887296 123.66660093237054 174.64499999999998 123.46700000000001 L 174.64499999999998 117.64100000000002 C 174.64499999999998 117.44100000000002 174.80599999999998 117.27900000000002 175.005 117.27900000000002"></path>
  <path fill="#0075ff" d="M 175.166 108.638 L 176.323 108.638 C 176.61096943189665 108.638 176.84410757478238 108.87203269806284 176.84300000000002 109.16000000000001 L 176.84300000000002 115.86900000000001 C 176.84410757478238 116.15696730193719 176.61096943189665 116.39100000000002 176.323 116.39100000000002 L 175.166 116.39100000000002 C 174.87803056810336 116.39100000000002 174.64489242521762 116.15696730193719 174.646 115.86900000000001 L 174.646 109.16000000000001 C 174.64489242521762 108.87203269806284 174.87803056810336 108.638 175.166 108.638"></path>
</svg>
