<?xml version="1.0" encoding="UTF-8" standalone="no"?>
<!DOCTYPE svg PUBLIC "-//W3C//DTD SVG 1.1//EN" "http://www.w3.org/Graphics/SVG/1.1/DTD/svg11.dtd">
<svg xmlns="http://www.w3.org/2000/svg" version="1.1" viewBox="0.00 0.00 512.00 512.00">
<g stroke-width="2.00" fill="none" stroke-linecap="butt">
<path stroke="#697980" vector-effect="non-scaling-stroke" d="
  M 351.46 278.46
  Q 335.80 253.21 316.79 222.25
  Q 306.05 204.76 306.04 185.74
  Q 305.97 81.66 305.98 80.51
  A 0.49 0.49 0.0 0 0 305.49 80.01
  Q 297.40 80.04 295.75 79.95
  C 285.32 79.41 282.33 66.22 291.62 61.02
  Q 293.51 59.97 298.60 59.97
  Q 303.73 59.96 311.53 60.05
  Q 319.63 60.14 323.28 58.65
  C 333.60 54.44 339.51 41.64 333.98 31.31
  Q 327.84 19.82 314.50 19.94
  Q 301.35 20.07 199.35 19.98
  Q 193.09 19.98 190.28 20.82
  C 171.27 26.50 171.48 53.40 190.27 59.16
  Q 193.80 60.24 201.81 60.02
  Q 204.56 59.94 213.43 59.97
  Q 218.10 59.99 219.98 60.82
  C 227.87 64.29 227.91 75.30 220.19 79.04
  C 216.83 80.67 211.33 79.97 206.52 80.01
  A 0.53 0.53 0.0 0 0 205.99 80.54
  Q 206.08 138.36 205.98 184.75
  Q 205.93 204.91 195.43 221.94
  Q 161.24 277.39 152.16 292.04
  A 0.78 0.78 0.0 0 0 152.28 293.01
  C 164.17 304.59 180.26 307.43 194.52 298.00
  Q 196.36 296.79 203.99 290.51
  C 219.90 277.41 242.56 275.33 260.62 285.08
  Q 266.73 288.39 269.70 290.96
  Q 276.89 297.21 280.19 299.08
  Q 296.64 308.41 312.98 298.97
  Q 315.73 297.39 323.30 291.05
  Q 334.61 281.58 351.11 279.21
  A 0.50 0.49 -20.1 0 0 351.46 278.46"
/>
<path stroke="#255b54" vector-effect="non-scaling-stroke" d="
  M 140.93 310.27
  Q 112.85 355.77 58.81 443.30
  Q 54.23 450.72 53.28 454.75
  C 50.38 467.10 55.22 479.61 65.54 486.77
  Q 73.11 492.03 83.99 492.03
  Q 382.95 491.92 418.90 492.07
  Q 434.16 492.13 438.85 490.57
  C 453.32 485.77 461.92 471.09 458.92 455.59
  Q 457.94 450.57 451.33 440.19
  Q 447.13 433.59 365.12 300.60
  A 1.48 1.46 80.5 0 0 364.22 299.95
  Q 351.68 296.80 340.39 303.44
  Q 337.03 305.41 329.94 311.42
  C 313.66 325.22 290.77 327.42 272.07 317.39
  Q 266.59 314.45 263.06 311.43
  C 258.13 307.23 253.76 303.43 248.14 301.24
  C 234.29 295.84 222.93 300.23 212.20 309.58
  C 191.14 327.93 162.71 328.50 141.58 310.17
  A 0.43 0.43 0.0 0 0 140.93 310.27"
/>
<path stroke="#697980" vector-effect="non-scaling-stroke" d="
  M 285.97 109.79
  A 9.69 9.69 0.0 0 0 276.28 100.10
  L 275.72 100.10
  A 9.69 9.69 0.0 0 0 266.03 109.79
  L 266.03 162.21
  A 9.69 9.69 0.0 0 0 275.72 171.90
  L 276.28 171.90
  A 9.69 9.69 0.0 0 0 285.97 162.21
  L 285.97 109.79"
/>
<path stroke="#697980" vector-effect="non-scaling-stroke" d="
  M 285.96 202.00
  A 9.96 9.96 0.0 0 0 276.00 192.04
  A 9.96 9.96 0.0 0 0 266.04 202.00
  A 9.96 9.96 0.0 0 0 276.00 211.96
  A 9.96 9.96 0.0 0 0 285.96 202.00"
/>
<path stroke="#255b54" vector-effect="non-scaling-stroke" d="
  M 225.97 381.99
  A 29.97 29.97 0.0 0 0 196.00 352.02
  A 29.97 29.97 0.0 0 0 166.03 381.99
  A 29.97 29.97 0.0 0 0 196.00 411.96
  A 29.97 29.97 0.0 0 0 225.97 381.99"
/>
<path stroke="#255b54" vector-effect="non-scaling-stroke" d="
  M 305.96 362.00
  A 9.96 9.96 0.0 0 0 296.00 352.04
  A 9.96 9.96 0.0 0 0 286.04 362.00
  A 9.96 9.96 0.0 0 0 296.00 371.96
  A 9.96 9.96 0.0 0 0 305.96 362.00"
/>
<path stroke="#255b54" vector-effect="non-scaling-stroke" d="
  M 385.97 421.99
  A 29.97 29.97 0.0 0 0 356.00 392.02
  A 29.97 29.97 0.0 0 0 326.03 421.99
  A 29.97 29.97 0.0 0 0 356.00 451.96
  A 29.97 29.97 0.0 0 0 385.97 421.99"
/>
<path stroke="#255b54" vector-effect="non-scaling-stroke" d="
  M 145.96 442.00
  A 9.96 9.96 0.0 0 0 136.00 432.04
  A 9.96 9.96 0.0 0 0 126.04 442.00
  A 9.96 9.96 0.0 0 0 136.00 451.96
  A 9.96 9.96 0.0 0 0 145.96 442.00"
/>
<path stroke="#255b54" vector-effect="non-scaling-stroke" d="
  M 265.96 442.00
  A 9.96 9.96 0.0 0 0 256.00 432.04
  A 9.96 9.96 0.0 0 0 246.04 442.00
  A 9.96 9.96 0.0 0 0 256.00 451.96
  A 9.96 9.96 0.0 0 0 265.96 442.00"
/>
<path stroke="#808080" vector-effect="non-scaling-stroke" d="
  M 205.96 382.00
  A 9.96 9.96 0.0 0 0 196.00 372.04
  A 9.96 9.96 0.0 0 0 186.04 382.00
  A 9.96 9.96 0.0 0 0 196.00 391.96
  A 9.96 9.96 0.0 0 0 205.96 382.00"
/>
<path stroke="#808080" vector-effect="non-scaling-stroke" d="
  M 365.96 422.00
  A 9.96 9.96 0.0 0 0 356.00 412.04
  A 9.96 9.96 0.0 0 0 346.04 422.00
  A 9.96 9.96 0.0 0 0 356.00 431.96
  A 9.96 9.96 0.0 0 0 365.96 422.00"
/>
</g>
<path fill="#000000" d="
  M 318.40 0.00
  Q 333.33 1.47 343.14 10.67
  C 357.38 24.03 360.07 44.82 349.59 61.60
  Q 342.06 73.67 326.45 78.70
  A 0.68 0.68 0.0 0 0 325.98 79.35
  Q 326.04 98.74 325.96 178.57
  Q 325.95 189.96 327.09 195.38
  Q 328.85 203.75 333.31 210.97
  Q 455.33 408.77 469.21 431.09
  Q 475.65 441.45 477.32 446.90
  C 482.13 462.61 479.30 478.74 469.45 492.08
  Q 456.71 509.33 433.02 512.00
  L 79.08 512.00
  Q 57.13 509.65 44.42 494.43
  C 33.15 480.94 29.53 463.52 34.74 446.77
  Q 36.36 441.59 42.41 431.79
  Q 146.14 263.80 178.33 211.58
  Q 186.05 199.06 186.02 184.00
  Q 185.97 156.62 186.01 79.34
  A 0.76 0.75 9.0 0 0 185.48 78.62
  Q 170.41 74.01 162.49 61.74
  C 153.11 47.23 154.05 28.48 164.77 15.01
  Q 175.42 1.64 193.53 0.00
  L 318.40 0.00
  Z
  M 351.46 278.46
  Q 335.80 253.21 316.79 222.25
  Q 306.05 204.76 306.04 185.74
  Q 305.97 81.66 305.98 80.51
  A 0.49 0.49 0.0 0 0 305.49 80.01
  Q 297.40 80.04 295.75 79.95
  C 285.32 79.41 282.33 66.22 291.62 61.02
  Q 293.51 59.97 298.60 59.97
  Q 303.73 59.96 311.53 60.05
  Q 319.63 60.14 323.28 58.65
  C 333.60 54.44 339.51 41.64 333.98 31.31
  Q 327.84 19.82 314.50 19.94
  Q 301.35 20.07 199.35 19.98
  Q 193.09 19.98 190.28 20.82
  C 171.27 26.50 171.48 53.40 190.27 59.16
  Q 193.80 60.24 201.81 60.02
  Q 204.56 59.94 213.43 59.97
  Q 218.10 59.99 219.98 60.82
  C 227.87 64.29 227.91 75.30 220.19 79.04
  C 216.83 80.67 211.33 79.97 206.52 80.01
  A 0.53 0.53 0.0 0 0 205.99 80.54
  Q 206.08 138.36 205.98 184.75
  Q 205.93 204.91 195.43 221.94
  Q 161.24 277.39 152.16 292.04
  A 0.78 0.78 0.0 0 0 152.28 293.01
  C 164.17 304.59 180.26 307.43 194.52 298.00
  Q 196.36 296.79 203.99 290.51
  C 219.90 277.41 242.56 275.33 260.62 285.08
  Q 266.73 288.39 269.70 290.96
  Q 276.89 297.21 280.19 299.08
  Q 296.64 308.41 312.98 298.97
  Q 315.73 297.39 323.30 291.05
  Q 334.61 281.58 351.11 279.21
  A 0.50 0.49 -20.1 0 0 351.46 278.46
  Z
  M 140.93 310.27
  Q 112.85 355.77 58.81 443.30
  Q 54.23 450.72 53.28 454.75
  C 50.38 467.10 55.22 479.61 65.54 486.77
  Q 73.11 492.03 83.99 492.03
  Q 382.95 491.92 418.90 492.07
  Q 434.16 492.13 438.85 490.57
  C 453.32 485.77 461.92 471.09 458.92 455.59
  Q 457.94 450.57 451.33 440.19
  Q 447.13 433.59 365.12 300.60
  A 1.48 1.46 80.5 0 0 364.22 299.95
  Q 351.68 296.80 340.39 303.44
  Q 337.03 305.41 329.94 311.42
  C 313.66 325.22 290.77 327.42 272.07 317.39
  Q 266.59 314.45 263.06 311.43
  C 258.13 307.23 253.76 303.43 248.14 301.24
  C 234.29 295.84 222.93 300.23 212.20 309.58
  C 191.14 327.93 162.71 328.50 141.58 310.17
  A 0.43 0.43 0.0 0 0 140.93 310.27
  Z"
/>
<path fill="#d1f1ff" d="
  M 351.11 279.21
  Q 334.61 281.58 323.30 291.05
  Q 315.73 297.39 312.98 298.97
  Q 296.64 308.41 280.19 299.08
  Q 276.89 297.21 269.70 290.96
  Q 266.73 288.39 260.62 285.08
  C 242.56 275.33 219.90 277.41 203.99 290.51
  Q 196.36 296.79 194.52 298.00
  C 180.26 307.43 164.17 304.59 152.28 293.01
  A 0.78 0.78 0.0 0 1 152.16 292.04
  Q 161.24 277.39 195.43 221.94
  Q 205.93 204.91 205.98 184.75
  Q 206.08 138.36 205.99 80.54
  A 0.53 0.53 0.0 0 1 206.52 80.01
  C 211.33 79.97 216.83 80.67 220.19 79.04
  C 227.91 75.30 227.87 64.29 219.98 60.82
  Q 218.10 59.99 213.43 59.97
  Q 204.56 59.94 201.81 60.02
  Q 193.80 60.24 190.27 59.16
  C 171.48 53.40 171.27 26.50 190.28 20.82
  Q 193.09 19.98 199.35 19.98
  Q 301.35 20.07 314.50 19.94
  Q 327.84 19.82 333.98 31.31
  C 339.51 41.64 333.60 54.44 323.28 58.65
  Q 319.63 60.14 311.53 60.05
  Q 303.73 59.96 298.60 59.97
  Q 293.51 59.97 291.62 61.02
  C 282.33 66.22 285.32 79.41 295.75 79.95
  Q 297.40 80.04 305.49 80.01
  A 0.49 0.49 0.0 0 1 305.98 80.51
  Q 305.97 81.66 306.04 185.74
  Q 306.05 204.76 316.79 222.25
  Q 335.80 253.21 351.46 278.46
  A 0.50 0.49 -20.1 0 1 351.11 279.21
  Z
  M 285.97 109.79
  A 9.69 9.69 0.0 0 0 276.28 100.10
  L 275.72 100.10
  A 9.69 9.69 0.0 0 0 266.03 109.79
  L 266.03 162.21
  A 9.69 9.69 0.0 0 0 275.72 171.90
  L 276.28 171.90
  A 9.69 9.69 0.0 0 0 285.97 162.21
  L 285.97 109.79
  Z
  M 285.96 202.00
  A 9.96 9.96 0.0 0 0 276.00 192.04
  A 9.96 9.96 0.0 0 0 266.04 202.00
  A 9.96 9.96 0.0 0 0 276.00 211.96
  A 9.96 9.96 0.0 0 0 285.96 202.00
  Z"
/>
<rect fill="#000000" x="266.03" y="100.10" width="19.94" height="71.80" rx="9.69"/>
<circle fill="#000000" cx="276.00" cy="202.00" r="9.96"/>
<path fill="#4ab5a7" d="
  M 140.93 310.27
  A 0.43 0.43 0.0 0 1 141.58 310.17
  C 162.71 328.50 191.14 327.93 212.20 309.58
  C 222.93 300.23 234.29 295.84 248.14 301.24
  C 253.76 303.43 258.13 307.23 263.06 311.43
  Q 266.59 314.45 272.07 317.39
  C 290.77 327.42 313.66 325.22 329.94 311.42
  Q 337.03 305.41 340.39 303.44
  Q 351.68 296.80 364.22 299.95
  A 1.48 1.46 80.5 0 1 365.12 300.60
  Q 447.13 433.59 451.33 440.19
  Q 457.94 450.57 458.92 455.59
  C 461.92 471.09 453.32 485.77 438.85 490.57
  Q 434.16 492.13 418.90 492.07
  Q 382.95 491.92 83.99 492.03
  Q 73.11 492.03 65.54 486.77
  C 55.22 479.61 50.38 467.10 53.28 454.75
  Q 54.23 450.72 58.81 443.30
  Q 112.85 355.77 140.93 310.27
  Z
  M 225.97 381.99
  A 29.97 29.97 0.0 0 0 196.00 352.02
  A 29.97 29.97 0.0 0 0 166.03 381.99
  A 29.97 29.97 0.0 0 0 196.00 411.96
  A 29.97 29.97 0.0 0 0 225.97 381.99
  Z
  M 305.96 362.00
  A 9.96 9.96 0.0 0 0 296.00 352.04
  A 9.96 9.96 0.0 0 0 286.04 362.00
  A 9.96 9.96 0.0 0 0 296.00 371.96
  A 9.96 9.96 0.0 0 0 305.96 362.00
  Z
  M 385.97 421.99
  A 29.97 29.97 0.0 0 0 356.00 392.02
  A 29.97 29.97 0.0 0 0 326.03 421.99
  A 29.97 29.97 0.0 0 0 356.00 451.96
  A 29.97 29.97 0.0 0 0 385.97 421.99
  Z
  M 145.96 442.00
  A 9.96 9.96 0.0 0 0 136.00 432.04
  A 9.96 9.96 0.0 0 0 126.04 442.00
  A 9.96 9.96 0.0 0 0 136.00 451.96
  A 9.96 9.96 0.0 0 0 145.96 442.00
  Z
  M 265.96 442.00
  A 9.96 9.96 0.0 0 0 256.00 432.04
  A 9.96 9.96 0.0 0 0 246.04 442.00
  A 9.96 9.96 0.0 0 0 256.00 451.96
  A 9.96 9.96 0.0 0 0 265.96 442.00
  Z"
/>
<path fill="#000000" d="
  M 225.97 381.99
  A 29.97 29.97 0.0 0 1 196.00 411.96
  A 29.97 29.97 0.0 0 1 166.03 381.99
  A 29.97 29.97 0.0 0 1 196.00 352.02
  A 29.97 29.97 0.0 0 1 225.97 381.99
  Z
  M 205.96 382.00
  A 9.96 9.96 0.0 0 0 196.00 372.04
  A 9.96 9.96 0.0 0 0 186.04 382.00
  A 9.96 9.96 0.0 0 0 196.00 391.96
  A 9.96 9.96 0.0 0 0 205.96 382.00
  Z"
/>
<circle fill="#000000" cx="296.00" cy="362.00" r="9.96"/>
<circle fill="#ffffff" cx="196.00" cy="382.00" r="9.96"/>
<path fill="#000000" d="
  M 385.97 421.99
  A 29.97 29.97 0.0 0 1 356.00 451.96
  A 29.97 29.97 0.0 0 1 326.03 421.99
  A 29.97 29.97 0.0 0 1 356.00 392.02
  A 29.97 29.97 0.0 0 1 385.97 421.99
  Z
  M 365.96 422.00
  A 9.96 9.96 0.0 0 0 356.00 412.04
  A 9.96 9.96 0.0 0 0 346.04 422.00
  A 9.96 9.96 0.0 0 0 356.00 431.96
  A 9.96 9.96 0.0 0 0 365.96 422.00
  Z"
/>
<circle fill="#ffffff" cx="356.00" cy="422.00" r="9.96"/>
<circle fill="#000000" cx="136.00" cy="442.00" r="9.96"/>
<circle fill="#000000" cx="256.00" cy="442.00" r="9.96"/>
</svg>
