<?xml version="1.0" encoding="utf-8"?>
<svg xmlns="http://www.w3.org/2000/svg" viewBox="-7.872 -3.87 66.541 66.28" height="64" width="64" fill="#e25a1c">
  <path d="M 42.915 42.1 L 42.612 41.456 L 35.992 28.906 C 35.768 28.486 35.796 28.236 36.092 27.879 L 46.565 15.579 C 46.687 15.435 46.798 15.281 46.845 15.025 L 43.787 15.825 L 31.087 19.2 C 30.693 19.306 30.514 19.19 30.317 18.864 L 23.105 6.848 C 22.98 6.64 22.845 6.448 22.58 6.263 L 21.998 9.47 L 19.985 20.8 L 19.777 22.024 C 19.743 22.424 19.543 22.558 19.191 22.669 L 4.24 27.394 C 4.02 27.464 3.808 27.552 3.573 27.766 L 15.873 32.65 L 15.869 32.653 L 18.043 33.6 L 15.62 52.9 L 28.864 38.22 L 31.097 38.847 L 31.099 38.854 L 42.906 42.11 Z M 6.973 37.952 L -2.173 33.876 C -3.541 33.276 -4.773 32.453 -5.731 31.281 C -7.898 28.631 -7.471 25.614 -4.583 23.781 C -3.638 23.178 -2.565 22.726 -1.495 22.377 L 13.191 17.712 C 13.591 17.584 13.791 17.4 13.868 16.955 L 15.868 5.625 C 16.232 3.607 16.426 1.525 17.408 -0.313 C 17.785 -1.013 18.238 -1.721 18.775 -2.317 C 20.72 -4.477 23.435 -4.559 25.491 -2.503 C 26.185 -1.809 26.791 -0.99 27.298 -0.15 L 34 10.986 C 34.262 11.426 34.5 11.516 34.984 11.386 L 51.4 7.025 C 52.528 6.727 53.67 6.618 54.827 6.825 C 57.347 7.297 58.45 9.225 57.597 11.651 C 57.209 12.751 56.539 13.698 55.797 14.583 L 44.34 28.05 C 44.027 28.416 44.02 28.68 44.237 29.09 L 51.059 42.024 C 51.603 43.056 52.019 44.127 52.029 45.312 C 52.056 48.008 50.085 50.214 47.406 50.606 C 45.906 50.826 44.512 50.506 43.106 50.072 L 32.806 46.939 C 32.621 46.884 32.502 46.818 32.424 46.705 L 30.273 45.947 L 21.025 55.931 C 21.025 55.931 20.651 56.319 20.066 56.841 C 15.847 61.077 13.384 62.221 12.037 62.412 C 12.674 62.538 13.068 62.619 11.992 62.418 C 10.98 62.547 10.618 62.133 10.618 62.133 C 10.618 62.133 10.696 62.148 10.821 62.173 C 7.226 60.666 9.146 39.43 9.146 39.43 L 9.147 39.43 C 9.147 39.429 9.147 39.429 9.147 39.429 L 7.218 38.039 C 7.134 38.023 7.051 37.995 6.973 37.952 Z" fill-rule="evenodd"/>
</svg>
